# xmcd
#
# Track frame offsets:
#	150
#	14227
#	34320
#	52521
#	66097
#	76517
#	91298
#	109346
#	127680
#	139950
#	154470
#	167032
#
# Disc length: 2446 seconds
#
# Revision: 0
# Processed by: cddbd v1.5.2PL0 Copyright (c) Steve Scherf et al.
# Submitted via: audiograbber 1.83.01
#
DISCID=97098c0c
DTITLE=Michael Hirte - Der Junge mit der mundharmonika
DYEAR=2008
DGENRE=
TTITLE0=Michael Hirte - Stille Nacht
TTITLE1=Michael Hirte - Ave maria
TTITLE2=Michael Hirte - You Raise me up
TTITLE3=Michael Hirte - Aber heidschi Bumbeidschi
TTITLE4=Michael Hirte - Morning has broken
TTITLE5=Michael Hirte - Amazing Grace
TTITLE6=Michael Hirte - We have a Dream
TTITLE7=Michael Hirte - Time to say Goodbye
TTITLE8=Michael Hirte - Guten Abend gute Nacht
TTITLE9=Michael Hirte - Mull of Kintrye
TTITLE10=Michael Hirte - Bright Eyes
TTITLE11=Michael Hirte - Bridge over troubled water
EXTD=
EXTT0=
EXTT1=
EXTT2=
EXTT3=
EXTT4=
EXTT5=
EXTT6=
EXTT7=
EXTT8=
EXTT9=
EXTT10=
EXTT11=
PLAYORDER=
